
		<svg xmlns="http://www.w3.org/2000/svg" xmlns:xlink="http://www.w3.org/1999/xlink" version="1.1" width="3384.6153846153848" height="3384.6153846153848">
			
			<g transform="scale(19.23076923076923) translate(10, 10)">
				<defs id="SvgjsDefs2818"><linearGradient id="SvgjsLinearGradient2823"><stop id="SvgjsStop2824" stop-color="#b88746" offset="0"></stop><stop id="SvgjsStop2825" stop-color="#fdf5a6" offset="1"></stop></linearGradient><linearGradient id="SvgjsLinearGradient2826"><stop id="SvgjsStop2827" stop-color="#b88746" offset="0"></stop><stop id="SvgjsStop2828" stop-color="#fdf5a6" offset="1"></stop></linearGradient></defs><g id="SvgjsG2819" featureKey="root" fill="transparent" transform="matrix(1,0,0,1,NaN,NaN)"></g><g id="SvgjsG2820" featureKey="container1" fill="#444644" transform="matrix(0.793860827491228,0,0,0.793860827491228,0,0)"><defs xmlns="http://www.w3.org/2000/svg"></defs><g xmlns="http://www.w3.org/2000/svg">  <path d="M98.254,0C44.077,0,0,44.076,0,98.254s44.077,98.254,98.254,98.254c54.177,0,98.254-44.076,98.254-98.254    S152.431,0,98.254,0z M98.254,195.508C44.628,195.508,1,151.88,1,98.254S44.628,1,98.254,1c53.626,0,97.254,43.628,97.254,97.254    S151.88,195.508,98.254,195.508z"></path>  <path d="M98.254,5.453c-51.171,0-92.801,41.63-92.801,92.801s41.63,92.801,92.801,92.801s92.802-41.63,92.802-92.801    S149.425,5.453,98.254,5.453z"></path></g></g><g id="SvgjsG2821" featureKey="text1" fill="url(#SvgjsLinearGradient2823)" transform="matrix(5.6058154404563165,0,0,5.6058154404563165,18.60957278424619,-35.42305219383471)"><path d="M3.6621 23.984375 q-0.556640625 0 -0.78125 0.3515625 l-1.5625 -1.0254 q0.80078125 -1.19140625 2.265625 -1.19140625 l4.6094 0 q0.322265625 -0.009765625 0.6201171875 -0.17578125 t0.47363 -0.46875 t0.17578 -0.63477 t-0.1709 -0.62988 t-0.46387 -0.46387 q-0.283203125 -0.15625 -0.595703125 -0.15625 l-4.6484 0 l0 -1.8652 l4.6484 0 q0.244140625 0 0.46875 -0.1220703125 t0.34668 -0.34668 t0.12207 -0.46875 t-0.12695 -0.46875 t-0.35156 -0.34668 t-0.45898 -0.12207 l-4.6484 0 q-1.46484375 0 -2.265625 -1.19140625 l1.5625 -1.0254 q0.224609375 0.3515625 0.78125 0.3515625 l4.5703 0 q0.703125 0 1.372070313 0.361328125 t1.0498 1.0352 t0.38086 1.4063 t-0.37109 1.3965 q-0.126953125 0.21484375 -0.2734375 0.41015625 q0.302734375 0.29296875 0.52734375 0.68359375 q0.41015625 0.7421875 0.41015625 1.5625 t-0.4248 1.5723 t-1.1768 1.1572 t-1.5332 0.41504 l-4.5313 0 z M13.46288125 18.173875 q-0.224609375 0.126953125 -0.3515625 0.3515625 t-0.12695 0.46875 t0.12695 0.46387 t0.35156 0.33691 l0.45898 0.18555 q0.48828125 0.1953125 1.09375 0.41015625 q1.943359375 0.712890625 2.734375 1.123046875 q2.109375 1.11328125 2.109375 2.822265625 l-1.8652 0 q0 -0.5859375 -1.11328125 -1.171875 q-0.673828125 -0.3515625 -2.5 -1.015625 q-0.78125 -0.2734375 -1.396484375 -0.517578125 q-0.126953125 -0.048828125 -0.25390625 -0.107421875 l-0.13672 -0.058594 q-0.732421875 -0.41015625 -1.103515625 -1.07421875 t-0.37109 -1.3965 t0.38086 -1.4063 t1.0938 -1.0742 q0.7421875 -0.3125 1.787109375 -0.68359375 q1.826171875 -0.6640625 2.5 -1.015625 q1.11328125 -0.5859375 1.11328125 -1.181640625 l1.8652 0 q0 1.71875 -2.109375 2.83203125 q-0.791015625 0.41015625 -2.734375 1.123046875 q-0.60546875 0.21484375 -1.09375 0.41015625 z M17.13478125 18.974575 q0 -0.56640625 0.390625 -0.95703125 q0.41015625 -0.41015625 0.9765625 -0.41015625 t0.97656 0.41016 q0.390625 0.390625 0.390625 0.95703125 q0 0.5859375 -0.390625 0.9765625 q-0.41015625 0.41015625 -0.9765625 0.41015625 t-0.97656 -0.41016 q-0.390625 -0.390625 -0.390625 -0.9765625 z"></path></g><g id="SvgjsG2822" featureKey="text3" fill="url(#SvgjsLinearGradient2826)" transform="matrix(0.281713492928381,0,0,0.281713492928381,43.999999966417136,112.5856327666105)"><path d="M5 14 l0.24 0 c1.9 0 3.42 0.92 4.52 2.76 c0.36 0.72 0.52 1.48 0.52 2.3 c0 0.42 -0.02 0.66 -0.1 0.66 l-8.68 0 l0 0.02 c0.06 0.58 0.4 1.24 1.02 1.96 c0.82 0.68 1.62 1.02 2.44 1.02 l0.36 0 c0.9 0 1.76 -0.4 2.6 -1.2 l1.58 0 c0.04 0 0.08 0.02 0.08 0.06 c-1.18 1.6 -2.56 2.42 -4.12 2.42 l-0.7 0 c-1.26 0 -2.48 -0.6 -3.66 -1.84 c-0.74 -0.98 -1.1 -2 -1.1 -3.06 l0 -0.28 c0 -1.68 0.86 -3.08 2.62 -4.22 c0.82 -0.4 1.62 -0.6 2.38 -0.6 z M1.5 18.28 l7.3 0 c-0.04 -0.5 -0.38 -1.12 -1 -1.9 c-0.8 -0.72 -1.7 -1.1 -2.66 -1.1 c-1.38 0 -2.46 0.64 -3.26 1.92 c-0.26 0.52 -0.38 0.88 -0.38 1.08 z M25.375999999999998 14 l1.28 0 c0.04 0 0.08 0.02 0.08 0.06 l0 1.46 c1.08 -1.02 2.26 -1.52 3.58 -1.52 l0.24 0 c1.9 0 3.42 0.92 4.52 2.76 c0.36 0.72 0.52 1.48 0.52 2.3 l0 4.88 c0 0.04 -0.02 0.06 -0.06 0.06 l-1.28 0 c-0.04 0 -0.08 -0.02 -0.08 -0.06 l0 -4.94 c0 -1.56 -0.78 -2.72 -2.36 -3.48 c-0.48 -0.16 -0.94 -0.24 -1.36 -0.24 c-1.62 0 -2.8 0.84 -3.54 2.52 c-0.12 0.42 -0.18 0.78 -0.18 1.06 l0 5.08 c0 0.04 -0.04 0.06 -0.08 0.06 l-1.28 0 c-0.04 0 -0.06 -0.02 -0.06 -0.06 l0 -9.88 c0 -0.04 0.02 -0.06 0.06 -0.06 z M55.831999999999994 14 l0.26 0 c1.38 0 2.64 0.54 3.78 1.6 l0 -1.52 c0.02 -0.06 0.04 -0.08 0.08 -0.08 l1.34 0 c0.04 0 0.06 0.04 0.06 0.08 l0 9.34 c0 1.76 -0.94 3.1 -2.82 4.02 c-0.78 0.38 -1.62 0.56 -2.58 0.56 c-2.18 0 -3.82 -0.9 -4.92 -2.7 l0 -0.08 l1.84 0 c0.86 0.82 1.82 1.24 2.88 1.24 l0.42 0 c1.38 0 2.48 -0.6 3.32 -1.82 c0.28 -0.46 0.42 -0.92 0.42 -1.34 l0 -0.48 c-1.14 1.12 -2.44 1.66 -3.92 1.66 c-2.12 0 -3.78 -1 -4.94 -3.06 c-0.3 -0.74 -0.44 -1.42 -0.44 -2.08 l0 -0.3 c0 -1.76 0.92 -3.24 2.74 -4.42 c0.86 -0.42 1.68 -0.62 2.48 -0.62 z M52.09199999999999 19.08 l0 0.34 c0 1.24 0.62 2.3 1.88 3.18 c0.66 0.34 1.26 0.52 1.82 0.52 l0.38 0 c1.16 0 2.16 -0.56 3.04 -1.7 c0.44 -0.68 0.66 -1.44 0.66 -2.28 c0 -1.48 -0.78 -2.64 -2.3 -3.48 c-0.56 -0.22 -1.08 -0.32 -1.58 -0.32 c-1.68 0 -2.94 0.86 -3.72 2.62 c-0.12 0.44 -0.18 0.82 -0.18 1.12 z M76.368 24 l0 -10 l1.42 0 l0 10 l-1.42 0 z M77.788 12.12 l0 1.44 l-1.42 0 l0 -1.44 l1.42 0 z M92.864 14 l1.28 0 c0.04 0 0.08 0.02 0.08 0.06 l0 1.46 c1.08 -1.02 2.26 -1.52 3.58 -1.52 l0.24 0 c1.9 0 3.42 0.92 4.52 2.76 c0.36 0.72 0.52 1.48 0.52 2.3 l0 4.88 c0 0.04 -0.02 0.06 -0.06 0.06 l-1.28 0 c-0.04 0 -0.08 -0.02 -0.08 -0.06 l0 -4.94 c0 -1.56 -0.78 -2.72 -2.36 -3.48 c-0.48 -0.16 -0.94 -0.24 -1.36 -0.24 c-1.62 0 -2.8 0.84 -3.54 2.52 c-0.12 0.42 -0.18 0.78 -0.18 1.06 l0 5.08 c0 0.04 -0.04 0.06 -0.08 0.06 l-1.28 0 c-0.04 0 -0.06 -0.02 -0.06 -0.06 l0 -9.88 c0 -0.04 0.02 -0.06 0.06 -0.06 z M123.1 14 l0.24 0 c1.9 0 3.42 0.92 4.52 2.76 c0.36 0.72 0.52 1.48 0.52 2.3 c0 0.42 -0.02 0.66 -0.1 0.66 l-8.68 0 l0 0.02 c0.06 0.58 0.4 1.24 1.02 1.96 c0.82 0.68 1.62 1.02 2.44 1.02 l0.36 0 c0.9 0 1.76 -0.4 2.6 -1.2 l1.58 0 c0.04 0 0.08 0.02 0.08 0.06 c-1.18 1.6 -2.56 2.42 -4.12 2.42 l-0.7 0 c-1.26 0 -2.48 -0.6 -3.66 -1.84 c-0.74 -0.98 -1.1 -2 -1.1 -3.06 l0 -0.28 c0 -1.68 0.86 -3.08 2.62 -4.22 c0.82 -0.4 1.62 -0.6 2.38 -0.6 z M119.6 18.28 l7.3 0 c-0.04 -0.5 -0.38 -1.12 -1 -1.9 c-0.8 -0.72 -1.7 -1.1 -2.66 -1.1 c-1.38 0 -2.46 0.64 -3.26 1.92 c-0.26 0.52 -0.38 0.88 -0.38 1.08 z M148.416 14 l0.24 0 c1.9 0 3.42 0.92 4.52 2.76 c0.36 0.72 0.52 1.48 0.52 2.3 c0 0.42 -0.02 0.66 -0.1 0.66 l-8.68 0 l0 0.02 c0.06 0.58 0.4 1.24 1.02 1.96 c0.82 0.68 1.62 1.02 2.44 1.02 l0.36 0 c0.9 0 1.76 -0.4 2.6 -1.2 l1.58 0 c0.04 0 0.08 0.02 0.08 0.06 c-1.18 1.6 -2.56 2.42 -4.12 2.42 l-0.7 0 c-1.26 0 -2.48 -0.6 -3.66 -1.84 c-0.74 -0.98 -1.1 -2 -1.1 -3.06 l0 -0.28 c0 -1.68 0.86 -3.08 2.62 -4.22 c0.82 -0.4 1.62 -0.6 2.38 -0.6 z M144.916 18.28 l7.3 0 c-0.04 -0.5 -0.38 -1.12 -1 -1.9 c-0.8 -0.72 -1.7 -1.1 -2.66 -1.1 c-1.38 0 -2.46 0.64 -3.26 1.92 c-0.26 0.52 -0.38 0.88 -0.38 1.08 z M168.792 14 l1.28 0 c0.04 0 0.08 0.02 0.08 0.06 l0 1.46 c1.08 -1.02 2.26 -1.52 3.58 -1.52 l0.06 0 c0.06 0 0.08 0.02 0.08 0.06 l0 1.14 c0 0.06 -0.32 0.12 -0.96 0.18 c-0.96 0.3 -1.68 0.84 -2.2 1.6 c-0.38 0.68 -0.56 1.32 -0.56 1.88 l0 5.08 c0 0.04 -0.04 0.06 -0.08 0.06 l-1.28 0 c-0.04 0 -0.06 -0.02 -0.06 -0.06 l0 -9.88 c0 -0.04 0.02 -0.06 0.06 -0.06 z M188.908 24 l0 -10 l1.42 0 l0 10 l-1.42 0 z M190.32799999999997 12.12 l0 1.44 l-1.42 0 l0 -1.44 l1.42 0 z M205.404 14 l1.28 0 c0.04 0 0.08 0.02 0.08 0.06 l0 1.46 c1.08 -1.02 2.26 -1.52 3.58 -1.52 l0.24 0 c1.9 0 3.42 0.92 4.52 2.76 c0.36 0.72 0.52 1.48 0.52 2.3 l0 4.88 c0 0.04 -0.02 0.06 -0.06 0.06 l-1.28 0 c-0.04 0 -0.08 -0.02 -0.08 -0.06 l0 -4.94 c0 -1.56 -0.78 -2.72 -2.36 -3.48 c-0.48 -0.16 -0.94 -0.24 -1.36 -0.24 c-1.62 0 -2.8 0.84 -3.54 2.52 c-0.12 0.42 -0.18 0.78 -0.18 1.06 l0 5.08 c0 0.04 -0.04 0.06 -0.08 0.06 l-1.28 0 c-0.04 0 -0.06 -0.02 -0.06 -0.06 l0 -9.88 c0 -0.04 0.02 -0.06 0.06 -0.06 z M235.85999999999999 14 l0.26 0 c1.38 0 2.64 0.54 3.78 1.6 l0 -1.52 c0.02 -0.06 0.04 -0.08 0.08 -0.08 l1.34 0 c0.04 0 0.06 0.04 0.06 0.08 l0 9.34 c0 1.76 -0.94 3.1 -2.82 4.02 c-0.78 0.38 -1.62 0.56 -2.58 0.56 c-2.18 0 -3.82 -0.9 -4.92 -2.7 l0 -0.08 l1.84 0 c0.86 0.82 1.82 1.24 2.88 1.24 l0.42 0 c1.38 0 2.48 -0.6 3.32 -1.82 c0.28 -0.46 0.42 -0.92 0.42 -1.34 l0 -0.48 c-1.14 1.12 -2.44 1.66 -3.92 1.66 c-2.12 0 -3.78 -1 -4.94 -3.06 c-0.3 -0.74 -0.44 -1.42 -0.44 -2.08 l0 -0.3 c0 -1.76 0.92 -3.24 2.74 -4.42 c0.86 -0.42 1.68 -0.62 2.48 -0.62 z M232.11999999999998 19.08 l0 0.34 c0 1.24 0.62 2.3 1.88 3.18 c0.66 0.34 1.26 0.52 1.82 0.52 l0.38 0 c1.16 0 2.16 -0.56 3.04 -1.7 c0.44 -0.68 0.66 -1.44 0.66 -2.28 c0 -1.48 -0.78 -2.64 -2.3 -3.48 c-0.56 -0.22 -1.08 -0.32 -1.58 -0.32 c-1.68 0 -2.94 0.86 -3.72 2.62 c-0.12 0.44 -0.18 0.82 -0.18 1.12 z"></path></g>
			</g>
		</svg>
	